<svg width="15" height="15" viewBox="0 0 15 15" fill="none" xmlns="http://www.w3.org/2000/svg">
<path d="M3.125 1.875V13.125H6.875V10.9375H8.125V13.125H11.875V1.875H3.125ZM4.375 3.125H5.625V4.375H4.375V3.125ZM6.875 3.125H8.125V4.375H6.875V3.125ZM9.375 3.125H10.625V4.375H9.375V3.125ZM4.375 5.625H5.625V6.875H4.375V5.625ZM6.875 5.625H8.125V6.875H6.875V5.625ZM9.375 5.625H10.625V6.875H9.375V5.625ZM4.375 8.125H5.625V9.375H4.375V8.125ZM6.875 8.125H8.125V9.375H6.875V8.125ZM9.375 8.125H10.625V9.375H9.375V8.125ZM4.375 10.625H5.625V11.875H4.375V10.625ZM9.375 10.625H10.625V11.875H9.375V10.625Z" fill="#A7A7A7"/>
</svg>
