<svg width="40" height="40" viewBox="0 0 40 40" fill="none" xmlns="http://www.w3.org/2000/svg">
<path d="M39.2963 15.7823H34.0824C33.9213 14.823 33.091 14.0876 32.086 14.0876H31.6527L32.6923 10.3533C32.7051 10.3538 32.7165 10.3569 32.7292 10.3569C33.5494 10.3569 34.2168 9.68948 34.2168 8.86931C34.2168 8.04914 33.5494 7.3822 32.7292 7.3822C32.4794 7.3822 32.2471 7.45026 32.0403 7.55959L29.0231 4.54279L29.3375 4.22842C29.5091 4.05674 29.5091 3.77926 29.3375 3.60758L27.5834 1.85309C27.4117 1.68142 27.1343 1.68142 26.9626 1.85309L25.7675 3.04822L22.3783 4.63367C22.2488 4.69426 22.1566 4.81457 22.1316 4.95551C22.107 5.09644 22.1527 5.24046 22.2536 5.34188L25.8487 8.93736C25.9317 9.02035 26.0436 9.06601 26.1591 9.06601C26.1846 9.06601 26.2096 9.06381 26.2351 9.05942C26.376 9.03484 26.4963 8.94263 26.5569 8.81311L28.1428 5.42311L28.4023 5.16362L31.4191 8.18042C31.3097 8.38722 31.2417 8.61948 31.2417 8.86931C31.2417 9.36413 31.4867 9.80012 31.8594 10.0706L30.7412 14.0871H30.0632C29.0587 14.0871 28.2284 14.8226 28.0673 15.7819H22.4916C22.7116 15.4601 22.8411 15.0715 22.8411 14.6531V13.9519C22.8411 13.7095 22.6448 13.5128 22.402 13.5128H21.2521V7.4788C21.2521 6.43251 20.4008 5.58117 19.3541 5.58117H9.22534C8.17905 5.58117 7.32771 6.43251 7.32771 7.4788V13.5133H6.17737C5.935 13.5133 5.7383 13.71 5.7383 13.9523V14.6535C5.7383 15.0719 5.86783 15.4605 6.0878 15.7823H0.658789C0.416427 15.7823 0.219727 15.979 0.219727 16.2214V19.9565C0.219727 20.1989 0.416427 20.3956 0.658789 20.3956H2.85981V37.7912C2.85981 38.034 3.05651 38.2303 3.29887 38.2303H6.53608C6.77844 38.2303 6.97514 38.034 6.97514 37.7912V20.3956H32.9799V37.7912C32.9799 38.034 33.1762 38.2303 33.419 38.2303H36.6562C36.899 38.2303 37.0953 38.034 37.0953 37.7912V20.3956H39.2963C39.5391 20.3956 39.7354 20.1989 39.7354 19.9565V16.2214C39.7354 15.979 39.5391 15.7823 39.2963 15.7823ZM27.273 2.78434L28.4062 3.918L27.7775 4.54674L26.6438 3.41308L27.273 2.78434ZM26.0269 7.87351L23.3175 5.16362L25.9303 3.94127L26.5898 4.60074L27.2493 5.26021L26.0269 7.87351ZM33.3386 8.86975C33.3386 9.20563 33.0656 9.47917 32.7292 9.47917C32.3933 9.47917 32.1203 9.20563 32.1203 8.86975C32.1203 8.53387 32.3933 8.26077 32.7292 8.26077C33.0656 8.26033 33.3386 8.53387 33.3386 8.86975ZM30.0641 14.9653H31.074C31.074 14.9653 31.0748 14.9653 31.0757 14.9653H31.077H32.0864C32.6054 14.9653 33.0454 15.3099 33.1889 15.7819H28.9625C29.1056 15.3099 29.5456 14.9653 30.0641 14.9653ZM8.20583 7.4788C8.20583 6.9168 8.66334 6.45929 9.22534 6.45929H19.3541C19.9165 6.45929 20.374 6.9168 20.374 7.4788V13.5133H8.20583V7.4788ZM6.61643 14.6535V14.3914H7.76677H20.8126H21.9625V14.6535C21.9625 15.2757 21.4563 15.7823 20.8337 15.7823H7.74526C7.12311 15.7823 6.61643 15.2761 6.61643 14.6535ZM6.09702 37.3522H3.73793V20.3956H6.09702V37.3522ZM36.2171 37.3522H33.8581V20.3956H36.2171V37.3522ZM38.8572 19.5175H36.6562H33.419H6.53608H3.29887H1.09785V16.6605H7.7457H20.8342H28.4734H33.6776H38.8572V19.5175Z" fill="#0A6FCD"/>
<path d="M26.7518 26.2575H13.2032C12.2219 26.2575 11.4237 27.0557 11.4237 28.0375V29.2936C11.4237 29.5364 11.6204 29.7327 11.8628 29.7327H13.2858V37.7912C13.2858 38.034 13.4825 38.2303 13.7248 38.2303H16.2925C16.5348 38.2303 16.7315 38.034 16.7315 37.7912V29.7327H23.224V37.7912C23.224 38.034 23.4202 38.2303 23.663 38.2303H26.2306C26.4735 38.2303 26.6697 38.034 26.6697 37.7912V29.7327H28.0927C28.3355 29.7327 28.5318 29.5364 28.5318 29.2936V28.0375C28.5313 27.0557 27.7331 26.2575 26.7518 26.2575ZM15.853 37.3522H14.1635V29.7327H15.853V37.3522ZM25.7911 37.3522H24.1016V29.7327H25.7911V37.3522ZM27.6532 28.8546H26.2302H23.6626H16.292H13.7244H12.3014V28.0375C12.3014 27.54 12.7058 27.1356 13.2028 27.1356H26.7514C27.2488 27.1356 27.6532 27.54 27.6532 28.0375V28.8546Z" fill="#0A6FCD"/>
</svg>
