<svg width="100" height="100" viewBox="0 0 100 100" fill="none" xmlns="http://www.w3.org/2000/svg">
<path d="M1.09998 1.09998H98.9V98.9008H1.09998V1.09998Z" fill="#F0DB4F"/>
<path d="M90.8961 75.5751C90.1797 71.1133 87.2703 67.3657 78.6523 63.8711C75.6586 62.4954 72.3211 61.5102 71.3266 59.2415C70.9734 57.9211 70.9266 57.1774 71.15 56.3782C71.7914 53.7844 74.8875 52.9758 77.3414 53.7196C78.9219 54.2493 80.418 55.4672 81.3203 57.4102C85.5406 54.6774 85.532 54.6954 88.4789 52.8172C87.4 51.1446 86.8242 50.3727 86.118 49.6571C83.5797 46.8219 80.1211 45.3618 74.5898 45.4735L71.7086 45.8461C68.9477 46.5438 66.3164 47.993 64.7734 49.936C60.1437 55.1891 61.4641 64.3829 67.0977 68.1665C72.6477 72.3321 80.8008 73.2797 81.8422 77.1751C82.8555 81.9438 78.3375 83.4876 73.8469 82.9391C70.5375 82.2508 68.6969 80.5688 66.707 77.5102C63.0445 79.6297 63.0445 79.6297 59.2789 81.7954C60.1719 83.7477 61.1102 84.6313 62.607 86.3227C69.6914 93.5086 87.4195 93.1555 90.5992 82.279C90.7281 81.9055 91.5844 79.4149 90.8961 75.5751ZM54.2672 46.0493H45.1195L45.082 69.6993C45.082 74.729 45.3422 79.3399 44.5242 80.7532C43.1859 83.5329 39.718 83.1883 38.1375 82.6493C36.5289 81.8586 35.7109 80.7344 34.7633 79.1454C34.5031 78.6891 34.3078 78.336 34.2422 78.3086L26.8047 82.8633C28.0414 85.4016 29.8633 87.6047 32.1969 89.036C35.6828 91.1282 40.368 91.7696 45.268 90.6446C48.457 89.7157 51.2086 87.7915 52.6492 84.8626C54.732 81.0227 54.2852 76.3751 54.2664 71.2344C54.3133 62.8477 54.2672 54.4626 54.2672 46.0493Z" fill="#323330"/>
</svg>
