<svg width="40" height="40" viewBox="0 0 40 40" fill="none" xmlns="http://www.w3.org/2000/svg">
<path d="M4.9458 15.7516C4.9458 7.4498 11.6758 0.719788 19.9776 0.719788C28.2795 0.719788 35.0095 7.44981 35.009 15.7512C35.009 19.457 33.6623 22.8437 31.438 25.465C31.438 25.465 31.4379 25.4651 31.4379 25.4651L19.9776 38.9629L8.51695 25.4656C6.29258 22.8438 4.9458 19.4575 4.9458 15.7516ZM13.0902 15.2168C13.0902 19.0209 16.1736 22.1043 19.9776 22.1043C23.7816 22.1043 26.8651 19.0209 26.8651 15.2168C26.8651 11.4128 23.7816 8.32936 19.9776 8.32936C16.1736 8.32936 13.0902 11.4128 13.0902 15.2168Z" stroke="#0A6FCD"/>
</svg>
