<svg width="138" height="138" viewBox="0 0 138 138" fill="none" xmlns="http://www.w3.org/2000/svg">
<g clip-path="url(#clip0_1_30)">
<g filter="url(#filter0_d_1_30)">
<path d="M130.562 22.8811L68.747 84.1678L7.46467 22.3528C5.76845 20.6391 3.00254 20.6304 1.29103 22.3266C-0.420472 24.0228 -0.431385 26.7888 1.26484 28.4981L64.9966 92.7843C65.7934 93.5877 66.8194 94.0134 67.8607 94.0701C68.1642 94.0876 68.4676 94.0679 68.7667 94.0243C68.8846 94.0418 68.9981 94.0701 69.116 94.0723C70.3036 94.1356 71.5151 93.7187 72.4233 92.8149L136.707 29.0788C138.421 27.3825 138.432 24.6188 136.734 22.9051C135.035 21.1914 132.271 21.1827 130.562 22.8811Z" fill="#F8F8F8"/>
</g>
</g>
<defs>
<filter id="filter0_d_1_30" x="-4" y="21.061" width="146" height="84.0176" filterUnits="userSpaceOnUse" color-interpolation-filters="sRGB">
<feFlood flood-opacity="0" result="BackgroundImageFix"/>
<feColorMatrix in="SourceAlpha" type="matrix" values="0 0 0 0 0 0 0 0 0 0 0 0 0 0 0 0 0 0 127 0" result="hardAlpha"/>
<feOffset dy="7"/>
<feGaussianBlur stdDeviation="2"/>
<feComposite in2="hardAlpha" operator="out"/>
<feColorMatrix type="matrix" values="0 0 0 0 0 0 0 0 0 0 0 0 0 0 0 0 0 0 0.25 0"/>
<feBlend mode="normal" in2="BackgroundImageFix" result="effect1_dropShadow_1_30"/>
<feBlend mode="normal" in="SourceGraphic" in2="effect1_dropShadow_1_30" result="shape"/>
</filter>
<clipPath id="clip0_1_30">
<rect width="138" height="138" fill="white"/>
</clipPath>
</defs>
</svg>
