<svg width="55" height="48" viewBox="0 0 55 48" fill="none" xmlns="http://www.w3.org/2000/svg">
<g clip-path="url(#clip0_12_52)">
<path d="M55 18.195C55.0011 17.462 54.8081 16.7416 54.4406 16.1073C54.073 15.473 53.5441 14.9474 52.9075 14.5838L30.16 1.0838C29.5044 0.701305 28.759 0.499756 28 0.499756C27.241 0.499756 26.4956 0.701305 25.84 1.0838L3.05875 14.5838C2.42922 14.9573 1.90772 15.4883 1.5455 16.1244C1.18328 16.7605 0.992805 17.4799 0.992805 18.2119C0.992805 18.9439 1.18328 19.6634 1.5455 20.2995C1.90772 20.9356 2.42922 21.4665 3.05875 21.84L9.53875 25.62V35.1038C9.54265 35.845 9.73719 36.5727 10.1036 37.217C10.4701 37.8612 10.9962 38.4004 11.6313 38.7826L25.975 47.0513C26.6154 47.4059 27.3355 47.5919 28.0675 47.5919C28.7995 47.5919 29.5196 47.4059 30.16 47.0513L44.5037 38.7826C45.1388 38.4004 45.6649 37.8612 46.0313 37.217C46.3978 36.5727 46.5924 35.845 46.5962 35.1038V25.5188L50.7812 23.055V32.2351H55V18.195ZM42.4113 35.07L28 43.3726L13.7575 35.1038V28.1176L25.84 35.3063C26.4978 35.6822 27.2424 35.8799 28 35.8799C28.7576 35.8799 29.5022 35.6822 30.16 35.3063L42.3775 28.0163L42.4113 35.07ZM28 31.6613L5.21875 18.1613L28 4.62755L50.7812 18.1276L28 31.6613Z" fill="#F8F8F8"/>
</g>
<defs>
<clipPath id="clip0_12_52">
<rect width="55" height="48" fill="white"/>
</clipPath>
</defs>
</svg>
