<svg width="16" height="15" viewBox="0 0 16 15" fill="none" xmlns="http://www.w3.org/2000/svg">
<g clip-path="url(#clip0_146_368)">
<path d="M5.85938 8.125C5.69361 8.125 5.53464 8.05915 5.41743 7.94194C5.30022 7.82473 5.23438 7.66576 5.23438 7.5C5.23438 7.33424 5.30022 7.17527 5.41743 7.05806C5.53464 6.94085 5.69361 6.875 5.85938 6.875C6.02514 6.875 6.18411 6.94085 6.30132 7.05806C6.41853 7.17527 6.48438 7.33424 6.48438 7.5C6.48438 7.66576 6.41853 7.82473 6.30132 7.94194C6.18411 8.05915 6.02514 8.125 5.85938 8.125V8.125ZM5.85938 10.625C5.69361 10.625 5.53464 10.5592 5.41743 10.4419C5.30022 10.3247 5.23438 10.1658 5.23438 10C5.23438 9.83424 5.30022 9.67527 5.41743 9.55806C5.53464 9.44085 5.69361 9.375 5.85938 9.375C6.02514 9.375 6.18411 9.44085 6.30132 9.55806C6.41853 9.67527 6.48438 9.83424 6.48438 10C6.48438 10.1658 6.41853 10.3247 6.30132 10.4419C6.18411 10.5592 6.02514 10.625 5.85938 10.625V10.625ZM7.73438 10C7.73438 10.1658 7.80022 10.3247 7.91743 10.4419C8.03464 10.5592 8.19361 10.625 8.35938 10.625C8.52514 10.625 8.68411 10.5592 8.80132 10.4419C8.91853 10.3247 8.98438 10.1658 8.98438 10C8.98438 9.83424 8.91853 9.67527 8.80132 9.55806C8.68411 9.44085 8.52514 9.375 8.35938 9.375C8.19361 9.375 8.03464 9.44085 7.91743 9.55806C7.80022 9.67527 7.73438 9.83424 7.73438 10ZM10.8594 10.625C10.6936 10.625 10.5346 10.5592 10.4174 10.4419C10.3002 10.3247 10.2344 10.1658 10.2344 10C10.2344 9.83424 10.3002 9.67527 10.4174 9.55806C10.5346 9.44085 10.6936 9.375 10.8594 9.375C11.0251 9.375 11.1841 9.44085 11.3013 9.55806C11.4185 9.67527 11.4844 9.83424 11.4844 10C11.4844 10.1658 11.4185 10.3247 11.3013 10.4419C11.1841 10.5592 11.0251 10.625 10.8594 10.625ZM7.73438 7.5C7.73438 7.66576 7.80022 7.82473 7.91743 7.94194C8.03464 8.05915 8.19361 8.125 8.35938 8.125C8.52514 8.125 8.68411 8.05915 8.80132 7.94194C8.91853 7.82473 8.98438 7.66576 8.98438 7.5C8.98438 7.33424 8.91853 7.17527 8.80132 7.05806C8.68411 6.94085 8.52514 6.875 8.35938 6.875C8.19361 6.875 8.03464 6.94085 7.91743 7.05806C7.80022 7.17527 7.73438 7.33424 7.73438 7.5ZM10.8594 8.125C10.6936 8.125 10.5346 8.05915 10.4174 7.94194C10.3002 7.82473 10.2344 7.66576 10.2344 7.5C10.2344 7.33424 10.3002 7.17527 10.4174 7.05806C10.5346 6.94085 10.6936 6.875 10.8594 6.875C11.0251 6.875 11.1841 6.94085 11.3013 7.05806C11.4185 7.17527 11.4844 7.33424 11.4844 7.5C11.4844 7.66576 11.4185 7.82473 11.3013 7.94194C11.1841 8.05915 11.0251 8.125 10.8594 8.125ZM5.85938 4.375C5.69361 4.375 5.53464 4.44085 5.41743 4.55806C5.30022 4.67527 5.23438 4.83424 5.23438 5C5.23438 5.16576 5.30022 5.32473 5.41743 5.44194C5.53464 5.55915 5.69361 5.625 5.85938 5.625H10.8594C11.0251 5.625 11.1841 5.55915 11.3013 5.44194C11.4185 5.32473 11.4844 5.16576 11.4844 5C11.4844 4.83424 11.4185 4.67527 11.3013 4.55806C11.1841 4.44085 11.0251 4.375 10.8594 4.375H5.85938Z" fill="#A7A7A7"/>
<path fill-rule="evenodd" clip-rule="evenodd" d="M4.60938 1.875C4.11209 1.875 3.63518 2.07254 3.28355 2.42417C2.93192 2.77581 2.73438 3.25272 2.73438 3.75V11.25C2.73438 11.7473 2.93192 12.2242 3.28355 12.5758C3.63518 12.9275 4.11209 13.125 4.60938 13.125H12.1094C12.6067 13.125 13.0836 12.9275 13.4352 12.5758C13.7868 12.2242 13.9844 11.7473 13.9844 11.25V3.75C13.9844 3.25272 13.7868 2.77581 13.4352 2.42417C13.0836 2.07254 12.6067 1.875 12.1094 1.875H4.60938ZM12.1094 3.125H4.60938C4.44361 3.125 4.28464 3.19085 4.16743 3.30806C4.05022 3.42527 3.98438 3.58424 3.98438 3.75V11.25C3.98438 11.4158 4.05022 11.5747 4.16743 11.6919C4.28464 11.8092 4.44361 11.875 4.60938 11.875H12.1094C12.2751 11.875 12.4341 11.8092 12.5513 11.6919C12.6685 11.5747 12.7344 11.4158 12.7344 11.25V3.75C12.7344 3.58424 12.6685 3.42527 12.5513 3.30806C12.4341 3.19085 12.2751 3.125 12.1094 3.125Z" fill="#A7A7A7"/>
</g>
<defs>
<clipPath id="clip0_146_368">
<rect width="15" height="15" fill="white" transform="translate(0.859375)"/>
</clipPath>
</defs>
</svg>
