<svg width="16" height="15" viewBox="0 0 16 15" fill="none" xmlns="http://www.w3.org/2000/svg">
<path d="M7.90625 8.4375C7.4427 8.4375 6.98956 8.30004 6.60413 8.04251C6.21871 7.78497 5.9183 7.41893 5.74091 6.99066C5.56352 6.5624 5.5171 6.09115 5.60754 5.63651C5.69797 5.18186 5.92119 4.76425 6.24897 4.43647C6.57675 4.10869 6.99437 3.88547 7.44901 3.79503C7.90365 3.7046 8.3749 3.75101 8.80317 3.92841C9.23143 4.1058 9.59747 4.4062 9.85501 4.79163C10.1125 5.17706 10.25 5.6302 10.25 6.09375C10.2493 6.71512 10.0021 7.31083 9.56271 7.75021C9.12333 8.18959 8.52762 8.43676 7.90625 8.4375V8.4375ZM7.90625 4.6875C7.62812 4.6875 7.35624 4.76998 7.12498 4.9245C6.89372 5.07902 6.71348 5.29864 6.60705 5.5556C6.50061 5.81256 6.47276 6.09531 6.52702 6.3681C6.58128 6.64088 6.71521 6.89145 6.91188 7.08812C7.10855 7.28479 7.35912 7.41872 7.63191 7.47298C7.90469 7.52724 8.18744 7.49939 8.4444 7.39296C8.70136 7.28652 8.92099 7.10628 9.07551 6.87502C9.23003 6.64376 9.3125 6.37188 9.3125 6.09375C9.31213 5.7209 9.16385 5.36343 8.90021 5.09979C8.63657 4.83615 8.2791 4.68787 7.90625 4.6875V4.6875Z" fill="#A7A7A7"/>
<path d="M7.90626 14.0625L3.95188 9.39891C3.89693 9.32888 3.84256 9.25841 3.78876 9.1875C3.11328 8.29771 2.74837 7.21089 2.75001 6.09375C2.75001 4.72623 3.29325 3.41472 4.26024 2.44773C5.22722 1.48075 6.53873 0.9375 7.90626 0.9375C9.27378 0.9375 10.5853 1.48075 11.5523 2.44773C12.5193 3.41472 13.0625 4.72623 13.0625 6.09375C13.0641 7.21038 12.6994 8.29671 12.0242 9.18609L12.0238 9.1875C12.0238 9.1875 11.8831 9.37219 11.862 9.39703L7.90626 14.0625ZM4.53688 8.62266C4.53782 8.62266 4.64657 8.76703 4.67141 8.79797L7.90626 12.6131L11.1453 8.79281C11.1659 8.76703 11.2756 8.62172 11.2761 8.62125C11.8279 7.89427 12.1261 7.00642 12.125 6.09375C12.125 4.97487 11.6805 3.90181 10.8894 3.11064C10.0982 2.31947 9.02514 1.875 7.90626 1.875C6.78737 1.875 5.71432 2.31947 4.92315 3.11064C4.13198 3.90181 3.68751 4.97487 3.68751 6.09375C3.68652 7.00699 3.98506 7.89535 4.53735 8.62266H4.53688Z" fill="#A7A7A7"/>
</svg>
