<svg width="12" height="12" viewBox="0 0 12 12" fill="none" xmlns="http://www.w3.org/2000/svg">
<path d="M10.8259 4.99263C10.9775 5.05705 10.9775 5.16253 10.8259 5.22631L6.276 7.15768C6.09763 7.22202 5.90238 7.22202 5.724 7.15768L1.17411 5.22695C1.02253 5.16253 1.02253 5.05642 1.17411 4.99263L5.724 3.06126C5.90237 2.99687 6.09764 2.99687 6.276 3.06126L10.8259 4.99263ZM6.51032 7.71031L9.0259 6.64295V7.95726C9.0259 8.83768 7.67116 9.55137 6 9.55137C4.32885 9.55137 2.97474 8.83768 2.97474 7.95726V6.64231L5.48969 7.70968C5.81789 7.83753 6.18212 7.83753 6.51032 7.70968V7.71031ZM9.63032 8.76947H10.6674V8.08042C10.6698 8.01076 10.6582 7.94133 10.6332 7.87626C10.6082 7.81118 10.5704 7.75181 10.522 7.70167C10.4736 7.65153 10.4155 7.61166 10.3514 7.58443C10.2872 7.55719 10.2182 7.54316 10.1485 7.54316C10.0788 7.54316 10.0098 7.55719 9.94568 7.58443C9.88152 7.61166 9.8235 7.65153 9.77508 7.70167C9.72667 7.75181 9.68884 7.81118 9.66386 7.87626C9.63888 7.94133 9.62726 8.01076 9.62969 8.08042L9.63032 8.76947ZM10.1482 6.49389C10.2174 6.49402 10.2852 6.4736 10.3428 6.43523C10.4004 6.39686 10.4453 6.34226 10.4719 6.27834C10.4985 6.21441 10.5055 6.14404 10.4921 6.07613C10.4787 6.00821 10.4454 5.94581 10.3965 5.89681C10.3476 5.84781 10.2852 5.81443 10.2173 5.80087C10.1495 5.78732 10.0791 5.79421 10.0151 5.82068C9.95112 5.84714 9.89644 5.89199 9.85796 5.94954C9.81949 6.0071 9.79895 6.07477 9.79895 6.144C9.79895 6.2368 9.83582 6.32579 9.90143 6.39141C9.96705 6.45703 10.056 6.49389 10.1488 6.49389H10.1482ZM10.1482 7.38758C10.2174 7.3877 10.2851 7.3673 10.3427 7.32896C10.4003 7.29062 10.4453 7.23605 10.4719 7.17217C10.4985 7.10828 10.5055 7.03794 10.4921 6.97004C10.4788 6.90215 10.4455 6.83974 10.3967 6.79072C10.3479 6.7417 10.2856 6.70826 10.2177 6.69464C10.1499 6.68101 10.0795 6.68781 10.0155 6.71418C9.95155 6.74055 9.89682 6.7853 9.85827 6.84277C9.81972 6.90024 9.79908 6.96785 9.79895 7.03705C9.79887 7.08305 9.80786 7.12862 9.8254 7.17114C9.84295 7.21367 9.86871 7.25232 9.90121 7.28487C9.93371 7.31743 9.97231 7.34326 10.0148 7.36088C10.0573 7.37851 10.1028 7.38758 10.1488 7.38758H10.1482Z" fill="#A7A7A7"/>
</svg>
