<svg width="30" height="30" viewBox="0 0 30 30" fill="none" xmlns="http://www.w3.org/2000/svg">
<path d="M20.0743 10.4239C20.0743 9.95071 19.6906 9.56708 19.2174 9.56708C18.7442 9.56708 18.3606 9.95071 18.3606 10.4239C18.3606 10.8971 18.7442 11.2807 19.2174 11.2807C19.691 11.2804 20.0743 10.8971 20.0743 10.4239Z" fill="#D9D9D9"/>
<path d="M14.8184 10.8928C12.6503 10.8928 10.8928 12.6503 10.8928 14.8184C10.8928 15.3604 11.0028 15.8767 11.2014 16.3463C11.3999 16.8159 11.6874 17.239 12.0427 17.594C12.753 18.3043 13.7347 18.7439 14.8187 18.7439C15.9027 18.7439 16.8841 18.3046 17.5947 17.594C17.95 17.2387 18.2375 16.8159 18.436 16.3463C18.6346 15.8767 18.7446 15.3604 18.7446 14.8184C18.7439 12.6503 16.9865 10.8928 14.8184 10.8928Z" fill="#D9D9D9"/>
<path d="M14.8184 0C6.63434 0 0 6.63434 0 14.8184C0 23.0024 6.63434 29.6367 14.8184 29.6367C23.0024 29.6367 29.6367 23.0024 29.6367 14.8184C29.6367 6.63434 23.0024 0 14.8184 0ZM23.0508 18.1897C23.0508 20.8745 20.8745 23.0508 18.1897 23.0508H11.447C8.76226 23.0508 6.58594 20.8745 6.58594 18.1897V11.447C6.58594 10.4404 6.89185 9.50515 7.4161 8.72933C8.28972 7.43618 9.76892 6.58594 11.447 6.58594H18.19C19.8678 6.58594 21.3473 7.43618 22.221 8.729C22.7449 9.50483 23.0508 10.44 23.0508 11.447V18.1897Z" fill="#D9D9D9"/>
</svg>
